<svg width="19" height="21" viewBox="0 0 19 21" fill="none" xmlns="http://www.w3.org/2000/svg">
<path d="M17.92 8.18191L10.2101 0.300255C10.1171 0.206507 10.0065 0.132097 9.88463 0.0813176C9.76277 0.0305383 9.63207 0.00439453 9.50006 0.00439453C9.36805 0.00439453 9.23734 0.0305383 9.11548 0.0813176C8.99362 0.132097 8.88302 0.206507 8.79006 0.300255L1.08011 8.19191C0.89355 8.38002 0.746208 8.60332 0.646642 8.84886C0.547077 9.09439 0.49727 9.35727 0.500115 9.62221V18.004C0.499341 18.516 0.694887 19.0088 1.04649 19.381C1.39809 19.7531 1.87897 19.9762 2.3901 20.0044H16.61C17.1211 19.9762 17.602 19.7531 17.9536 19.381C18.3052 19.0088 18.5008 18.516 18.5 18.004V9.62221C18.5008 9.08503 18.2928 8.56858 17.92 8.18191V8.18191ZM7.50007 18.004V12.0027H11.5V18.004H7.50007ZM16.5 18.004H13.5V11.0025C13.5 10.7372 13.3947 10.4828 13.2071 10.2952C13.0196 10.1077 12.7653 10.0023 12.5 10.0023H6.50008C6.23486 10.0023 5.98051 10.1077 5.79297 10.2952C5.60544 10.4828 5.50008 10.7372 5.50008 11.0025V18.004H2.5001V9.58221L9.50006 2.4307L16.5 9.62221V18.004Z" fill="#8C94A1"/>
</svg>
