<svg width="222" height="38" viewBox="0 0 222 38" fill="none" xmlns="http://www.w3.org/2000/svg">
<g clip-path="url(#clip0_2322_170)">
<path d="M8 11.6946V26.261L12.3944 23.0068V8.97168L8 11.6946Z" fill="#80B9C0"/>
<path d="M12.3944 28.9175V23.0068L8 26.261L12.3944 28.9175Z" fill="#68A5AA"/>
<path d="M20.2114 4.5L13.6621 8.32977V22.1656L20.0635 17.4061L26.3382 22.1214V8.32977L20.2114 4.5Z" fill="#91CDF2"/>
<path d="M13.6621 22.1658V29.449L20.0635 33.5001L26.3382 29.449V22.1215L20.0635 17.4062L13.6621 22.1658Z" fill="#295AA9"/>
<path d="M27.6057 28.9174L32.0001 26.2609L27.6057 22.9624V28.9174Z" fill="#68A5AA"/>
<path d="M27.6057 8.97168V22.9625L32.0001 26.261V11.6946L27.6057 8.97168Z" fill="#80B9C0"/>
</g>
<path d="M42.56 8.4V12.176H53.792C55.84 12.176 56.768 13.488 56.768 15.056C56.768 16.56 55.904 18.032 53.76 18.032H45.984C43.616 18.032 42.592 19.024 42.592 21.456V30H46.368V22.192C46.368 21.808 46.56 21.648 46.912 21.648H53.632C58.688 21.648 60.576 18.128 60.576 14.864C60.576 11.408 58.496 8.4 53.632 8.4H42.56ZM63.9468 13.104V16.368H74.0588C75.9148 16.368 76.6508 17.392 76.6508 18.704V19.984H68.6188C64.4588 19.984 62.9228 21.776 62.9228 24.848C62.9228 28.048 64.5868 30 68.5868 30H76.4908C79.3388 30 79.9788 29.04 79.9788 26.608V18.672C79.9788 15.472 78.3148 13.104 74.0908 13.104H63.9468ZM75.7228 26.704H68.6188C66.9228 26.704 66.2508 25.904 66.2508 24.656C66.2508 23.408 66.8908 22.672 68.6828 22.672H76.6508V25.84C76.6508 26.448 76.3948 26.704 75.7228 26.704ZM89.6928 13.104C86.3648 13.104 85.1168 14.64 85.1168 18.032V30H88.5088V18.544C88.5088 17.072 89.1808 16.368 90.6848 16.368H96.6368V13.104H89.6928ZM100.335 13.104V30H103.727V13.104H100.335ZM100.335 6.736V10.672H103.759V6.736H100.335Z" fill="#295AA9"/>
<path d="M107.135 8.4L114.367 27.6C115.167 29.712 116.799 30.384 118.911 30.384C121.151 30.384 122.623 29.616 123.423 27.6L131.039 8.4H126.847L119.967 25.776C119.743 26.288 119.423 26.512 118.911 26.512C118.399 26.512 118.047 26.288 117.855 25.776L111.295 8.4H107.135ZM138.088 13.104C133.864 13.104 132.2 15.472 132.2 18.672V24.432C132.2 27.632 133.864 30 138.088 30H148.424V26.704H138.088C136.232 26.704 135.496 25.712 135.496 24.368V23.152H143.528C147.688 23.152 149.256 21.392 149.256 18.288C149.256 15.024 147.56 13.104 143.56 13.104H138.088ZM135.496 18.704C135.496 17.392 136.232 16.368 138.088 16.368H143.528C145.192 16.368 145.928 17.2 145.928 18.48C145.928 19.728 145.256 20.496 143.432 20.496H135.496V18.704ZM158.505 13.104C154.569 13.104 153.001 14.992 153.001 18.032C153.001 20.624 154.153 22.96 158.825 22.96H162.825C164.521 22.96 165.225 23.504 165.225 24.848C165.225 26.16 164.585 26.704 163.017 26.704H153.193V30H163.017C166.985 30 168.553 27.888 168.553 24.88C168.553 22.256 167.369 20.112 162.697 20.112H158.729C156.841 20.112 156.329 19.472 156.329 18.288C156.329 17.008 156.969 16.368 158.537 16.368H167.881V13.104H158.505ZM171.229 13.104V16.368H173.533V24.176C173.533 28.592 175.037 30 178.525 30H181.565V26.896H179.229C177.629 26.896 176.957 26.256 176.957 24.368V16.368H181.629V13.104H176.957V9.104H173.533V13.104H171.229Z" fill="#80B9C0"/>
<defs>
<clipPath id="clip0_2322_170">
<rect width="24" height="29" fill="white" transform="translate(8 4.5)"/>
</clipPath>
</defs>
</svg>
